<mxfile host="65bd71144e">
    <diagram name="Climate Health Impact Flow" id="climate-health-flow">
        <mxGraphModel dx="499" dy="832" grid="1" gridSize="10" guides="1" tooltips="1" connect="1" arrows="1" fold="1" page="1" pageScale="1" pageWidth="1100" pageHeight="850" math="0" shadow="0">
            <root>
                <mxCell id="0"/>
                <mxCell id="1" parent="0"/>
                <mxCell id="2" value="&lt;font style=&quot;font-size: 20px;&quot;&gt;&lt;b&gt;Climate Change Impact on Health &amp; Clinical Research&lt;/b&gt;&lt;/font&gt;" style="text;html=1;strokeColor=none;fillColor=none;align=center;verticalAlign=middle;whiteSpace=wrap;rounded=0;fontColor=#00539B;" parent="1" vertex="1">
                    <mxGeometry x="250" y="20" width="600" height="30" as="geometry"/>
                </mxCell>
                <mxCell id="3" value="&lt;b&gt;Climate Drivers&lt;/b&gt;" style="swimlane;horizontal=0;whiteSpace=wrap;html=1;fillColor=#00539B;fontColor=#FFFFFF;strokeColor=#00539B;" parent="1" vertex="1">
                    <mxGeometry x="40" y="70" width="200" height="380" as="geometry"/>
                </mxCell>
                <mxCell id="4" value="Rising Temperatures" style="rounded=1;whiteSpace=wrap;html=1;fillColor=#87CEFA;strokeColor=#00539B;fontColor=#000000;" parent="3" vertex="1">
                    <mxGeometry x="30" y="20" width="150" height="60" as="geometry"/>
                </mxCell>
                <mxCell id="5" value="&lt;font&gt;Extreme Weather Events&lt;/font&gt;" style="rounded=1;whiteSpace=wrap;html=1;fillColor=#87CEFA;strokeColor=#00539B;fontColor=#000000;" parent="3" vertex="1">
                    <mxGeometry x="30" y="100" width="150" height="60" as="geometry"/>
                </mxCell>
                <mxCell id="6" value="Ecosystem Disruption" style="rounded=1;whiteSpace=wrap;html=1;fillColor=#87CEFA;strokeColor=#00539B;fontColor=#000000;" parent="3" vertex="1">
                    <mxGeometry x="30" y="180" width="150" height="60" as="geometry"/>
                </mxCell>
                <mxCell id="7" value="&lt;font&gt;Air &amp; Water Pollution&lt;/font&gt;" style="rounded=1;whiteSpace=wrap;html=1;fillColor=#87CEFA;strokeColor=#00539B;fontColor=#000000;" parent="3" vertex="1">
                    <mxGeometry x="30" y="260" width="150" height="60" as="geometry"/>
                </mxCell>
                <mxCell id="8" value="&lt;b&gt;Health Impacts&lt;/b&gt;" style="swimlane;horizontal=0;whiteSpace=wrap;html=1;fillColor=#B22222;fontColor=#FFFFFF;strokeColor=#B22222;" parent="1" vertex="1">
                    <mxGeometry x="330" y="70" width="220" height="380" as="geometry">
                        <mxRectangle x="330" y="70" width="40" height="120" as="alternateBounds"/>
                    </mxGeometry>
                </mxCell>
                <mxCell id="9" value="Heat-Related Mortality &lt;br&gt;(↑55% in seniors)" style="rounded=1;whiteSpace=wrap;html=1;fillColor=#FF8C00;strokeColor=#B22222;fontColor=#000000;fillOpacity=30;" parent="8" vertex="1">
                    <mxGeometry x="35" y="20" width="150" height="60" as="geometry"/>
                </mxCell>
                <mxCell id="10" value="Vector-Borne Diseases&lt;br&gt;(Malaria ↑94%, Dengue ↑45%)" style="rounded=1;whiteSpace=wrap;html=1;fillColor=#FF8C00;strokeColor=#B22222;fontColor=#000000;fillOpacity=30;" parent="8" vertex="1">
                    <mxGeometry x="35" y="100" width="150" height="60" as="geometry"/>
                </mxCell>
                <mxCell id="11" value="Malnutrition &amp; Food Insecurity" style="rounded=1;whiteSpace=wrap;html=1;fillColor=#FF8C00;strokeColor=#B22222;fontColor=#000000;fillOpacity=30;" parent="8" vertex="1">
                    <mxGeometry x="35" y="180" width="150" height="60" as="geometry"/>
                </mxCell>
                <mxCell id="12" value="Respiratory Conditions &lt;br&gt;(10,000+ deaths/year)" style="rounded=1;whiteSpace=wrap;html=1;fillColor=#FF8C00;strokeColor=#B22222;fontColor=#000000;fillOpacity=30;" parent="8" vertex="1">
                    <mxGeometry x="35" y="260" width="150" height="60" as="geometry"/>
                </mxCell>
                <mxCell id="13" value="&lt;b&gt;Clinical Research Implications&lt;/b&gt;" style="swimlane;horizontal=0;whiteSpace=wrap;html=1;fillColor=#228B22;fontColor=#FFFFFF;strokeColor=#228B22;" parent="1" vertex="1">
                    <mxGeometry x="640" y="70" width="200" height="380" as="geometry">
                        <mxRectangle x="640" y="70" width="40" height="200" as="alternateBounds"/>
                    </mxGeometry>
                </mxCell>
                <mxCell id="14" value="Shifting Disease Burden &amp; Research Priorities" style="rounded=1;whiteSpace=wrap;html=1;fillColor=#228B22;strokeColor=#228B22;fontColor=#000000;fillOpacity=20;" parent="13" vertex="1">
                    <mxGeometry x="30" y="20" width="150" height="60" as="geometry"/>
                </mxCell>
                <mxCell id="15" value="Participant Vulnerability &amp; Ethical Considerations" style="rounded=1;whiteSpace=wrap;html=1;fillColor=#228B22;strokeColor=#228B22;fontColor=#000000;fillOpacity=20;" parent="13" vertex="1">
                    <mxGeometry x="30" y="100" width="150" height="60" as="geometry"/>
                </mxCell>
                <mxCell id="16" value="Operational Challenges (site access, supply chain)" style="rounded=1;whiteSpace=wrap;html=1;fillColor=#228B22;strokeColor=#228B22;fontColor=#000000;fillOpacity=20;" parent="13" vertex="1">
                    <mxGeometry x="30" y="180" width="150" height="60" as="geometry"/>
                </mxCell>
                <mxCell id="17" value="Sustainability Requirements from Funders" style="rounded=1;whiteSpace=wrap;html=1;fillColor=#228B22;strokeColor=#228B22;fontColor=#000000;fillOpacity=20;" parent="13" vertex="1">
                    <mxGeometry x="30" y="260" width="150" height="60" as="geometry"/>
                </mxCell>
                <mxCell id="18" value="" style="endArrow=classic;html=1;rounded=0;exitX=1;exitY=0.5;exitDx=0;exitDy=0;entryX=0;entryY=0.5;entryDx=0;entryDy=0;strokeColor=#00539B;strokeWidth=2;" parent="1" source="4" target="9" edge="1">
                    <mxGeometry width="50" height="50" relative="1" as="geometry">
                        <mxPoint x="330" y="390" as="sourcePoint"/>
                        <mxPoint x="380" y="340" as="targetPoint"/>
                    </mxGeometry>
                </mxCell>
                <mxCell id="19" value="" style="endArrow=classic;html=1;rounded=0;exitX=1;exitY=0.5;exitDx=0;exitDy=0;entryX=0;entryY=0.5;entryDx=0;entryDy=0;strokeColor=#00539B;strokeWidth=2;" parent="1" source="4" target="10" edge="1">
                    <mxGeometry width="50" height="50" relative="1" as="geometry">
                        <mxPoint x="330" y="390" as="sourcePoint"/>
                        <mxPoint x="380" y="340" as="targetPoint"/>
                    </mxGeometry>
                </mxCell>
                <mxCell id="20" value="" style="endArrow=classic;html=1;rounded=0;exitX=1;exitY=0.5;exitDx=0;exitDy=0;entryX=0;entryY=0.5;entryDx=0;entryDy=0;strokeColor=#00539B;strokeWidth=2;" parent="1" source="5" target="10" edge="1">
                    <mxGeometry width="50" height="50" relative="1" as="geometry">
                        <mxPoint x="330" y="390" as="sourcePoint"/>
                        <mxPoint x="380" y="340" as="targetPoint"/>
                    </mxGeometry>
                </mxCell>
                <mxCell id="21" value="" style="endArrow=classic;html=1;rounded=0;exitX=1;exitY=0.5;exitDx=0;exitDy=0;entryX=0;entryY=0.5;entryDx=0;entryDy=0;strokeColor=#00539B;strokeWidth=2;" parent="1" source="6" target="11" edge="1">
                    <mxGeometry width="50" height="50" relative="1" as="geometry">
                        <mxPoint x="330" y="390" as="sourcePoint"/>
                        <mxPoint x="380" y="340" as="targetPoint"/>
                    </mxGeometry>
                </mxCell>
                <mxCell id="22" value="" style="endArrow=classic;html=1;rounded=0;exitX=1;exitY=0.5;exitDx=0;exitDy=0;entryX=0;entryY=0.5;entryDx=0;entryDy=0;strokeColor=#00539B;strokeWidth=2;" parent="1" source="7" target="12" edge="1">
                    <mxGeometry width="50" height="50" relative="1" as="geometry">
                        <mxPoint x="330" y="390" as="sourcePoint"/>
                        <mxPoint x="380" y="340" as="targetPoint"/>
                    </mxGeometry>
                </mxCell>
                <mxCell id="23" value="" style="endArrow=classic;html=1;rounded=0;exitX=1;exitY=0.5;exitDx=0;exitDy=0;entryX=0;entryY=0.5;entryDx=0;entryDy=0;strokeColor=#B22222;strokeWidth=2;" parent="1" source="9" target="14" edge="1">
                    <mxGeometry width="50" height="50" relative="1" as="geometry">
                        <mxPoint x="330" y="390" as="sourcePoint"/>
                        <mxPoint x="380" y="340" as="targetPoint"/>
                    </mxGeometry>
                </mxCell>
                <mxCell id="24" value="" style="endArrow=classic;html=1;rounded=0;exitX=1;exitY=0.5;exitDx=0;exitDy=0;entryX=0;entryY=0.5;entryDx=0;entryDy=0;strokeColor=#B22222;strokeWidth=2;" parent="1" source="10" target="14" edge="1">
                    <mxGeometry width="50" height="50" relative="1" as="geometry">
                        <mxPoint x="330" y="390" as="sourcePoint"/>
                        <mxPoint x="380" y="340" as="targetPoint"/>
                    </mxGeometry>
                </mxCell>
                <mxCell id="25" value="" style="endArrow=classic;html=1;rounded=0;exitX=1;exitY=0.5;exitDx=0;exitDy=0;entryX=0;entryY=0.5;entryDx=0;entryDy=0;strokeColor=#B22222;strokeWidth=2;" parent="1" source="10" target="15" edge="1">
                    <mxGeometry width="50" height="50" relative="1" as="geometry">
                        <mxPoint x="330" y="390" as="sourcePoint"/>
                        <mxPoint x="380" y="340" as="targetPoint"/>
                    </mxGeometry>
                </mxCell>
                <mxCell id="26" value="" style="endArrow=classic;html=1;rounded=0;exitX=1;exitY=0.5;exitDx=0;exitDy=0;entryX=0;entryY=0.5;entryDx=0;entryDy=0;strokeColor=#B22222;strokeWidth=2;" parent="1" source="11" target="16" edge="1">
                    <mxGeometry width="50" height="50" relative="1" as="geometry">
                        <mxPoint x="330" y="390" as="sourcePoint"/>
                        <mxPoint x="380" y="340" as="targetPoint"/>
                    </mxGeometry>
                </mxCell>
                <mxCell id="27" value="" style="endArrow=classic;html=1;rounded=0;exitX=1;exitY=0.5;exitDx=0;exitDy=0;entryX=0;entryY=0.5;entryDx=0;entryDy=0;strokeColor=#B22222;strokeWidth=2;" parent="1" source="12" target="17" edge="1">
                    <mxGeometry width="50" height="50" relative="1" as="geometry">
                        <mxPoint x="330" y="390" as="sourcePoint"/>
                        <mxPoint x="380" y="340" as="targetPoint"/>
                    </mxGeometry>
                </mxCell>
                <mxCell id="28" value="Health costs of climate inaction in LMICs:&#10;US$8.6-20.8 trillion by 2050" style="shape=callout;whiteSpace=wrap;html=1;perimeter=calloutPerimeter;position2=0.42;fillColor=#B22222;fontColor=#FFFFFF;strokeColor=#B22222;base=20;size=30;position=0.58;" parent="1" vertex="1">
                    <mxGeometry x="350" y="470" width="230" height="90" as="geometry"/>
                </mxCell>
                <mxCell id="29" value="Source: The Lancet Countdown, 2023" style="text;html=1;strokeColor=none;fillColor=none;align=right;verticalAlign=middle;whiteSpace=wrap;rounded=0;fontColor=#666666;fontSize=10;" parent="1" vertex="1">
                    <mxGeometry x="470" y="570" width="250" height="20" as="geometry"/>
                </mxCell>
            </root>
        </mxGraphModel>
    </diagram>
</mxfile>